<?xml version="1.0" encoding="UTF-8" standalone="no"?>
<svg
   xmlns:dc="http://purl.org/dc/elements/1.1/"
   xmlns:cc="http://creativecommons.org/ns#"
   xmlns:rdf="http://www.w3.org/1999/02/22-rdf-syntax-ns#"
   xmlns:svg="http://www.w3.org/2000/svg"
   xmlns="http://www.w3.org/2000/svg"
   xmlns:sodipodi="http://sodipodi.sourceforge.net/DTD/sodipodi-0.dtd"
   xmlns:inkscape="http://www.inkscape.org/namespaces/inkscape"
   width="291"
   height="336"
   viewBox="0 0 291 336"
   version="1.1"
   id="svg3043"
   inkscape:version="0.48.5 r10040"
   sodipodi:docname="face_calvin_02.svg">
  <metadata
     id="metadata3099">
    <rdf:RDF>
      <cc:Work
         rdf:about="">
        <dc:format>image/svg+xml</dc:format>
        <dc:type
           rdf:resource="http://purl.org/dc/dcmitype/StillImage" />
        <dc:title>face_calvin_animatable</dc:title>
      </cc:Work>
    </rdf:RDF>
  </metadata>
  <defs
     id="defs3097" />
  <sodipodi:namedview
     pagecolor="#ffffff"
     bordercolor="#666666"
     borderopacity="1"
     objecttolerance="10"
     gridtolerance="10"
     guidetolerance="10"
     inkscape:pageopacity="0"
     inkscape:pageshadow="2"
     inkscape:window-width="1366"
     inkscape:window-height="705"
     id="namedview3095"
     showgrid="false"
     inkscape:zoom="1.5416667"
     inkscape:cx="145.5"
     inkscape:cy="137.11435"
     inkscape:window-x="-8"
     inkscape:window-y="-8"
     inkscape:window-maximized="1"
     inkscape:current-layer="svg3043" />
  <title
     id="title3045">face_calvin_animatable</title>
  <g
     id="faces"
     class="faces"
     stroke="none"
     stroke-width="1"
     fill="none"
     fill-rule="evenodd">
    <g
       id="merge3"
       class="merge3"
       transform="translate(2.000000, 2.000000)">
      <g
         id="bg-statics"
         class="bg statics"
         transform="translate(60.000000, 172.000000)"
         fill="#FFFFFF">
        <path
           id="eye-left-white"
           class="eye left white"
           d="M40 80C62.1 80 80 62.1 80 40 80 17.9 62.1 0 40 0 17.9 0 0 17.9 0 40 0 62.1 17.9 80 40 80Z" />
        <path
           id="eye-right-white"
           class="eye right white"
           d="M123 80C145.1 80 163 62.1 163 40 163 17.9 145.1 0 123 0 100.9 0 83 17.9 83 40 83 62.1 100.9 80 123 80Z" />
      </g>
      <g
         id="eyes"
         class="eyes"
         transform="translate(36.000000, 84.000000)">
        <g
           id="eye-right"
           class="eye right"
           transform="translate(118.000000, 0.000000)">
          <g
             id="eye-right-gaze"
             class="eye right gaze"
             transform="translate(25.000000, 125.000000)">
            <g
               id="eyeball-right"
               class="eyeball right">
              <circle
                 id="eye-right-iris"
                 class="eye right iris"
                 fill="#000000"
                 cx="8.5"
                 cy="8.5"
                 r="15.5"
                 d="M 24,8.5 C 24,17.060414 17.060414,24 8.5,24 -0.06041362,24 -7,17.060414 -7,8.5 -7,-0.06041362 -0.06041362,-7 8.5,-7 17.060414,-7 24,-0.06041362 24,8.5 z" />
              <circle
                 id="eye-right-pupil"
                 class="eye right pupil"
                 fill="#FFFFFF"
                 cx="15.5"
                 cy="15.5"
                 r="2.5"
                 d="M 18,15.5 C 18,16.880712 16.880712,18 15.5,18 14.119288,18 13,16.880712 13,15.5 13,14.119288 14.119288,13 15.5,13 c 1.380712,0 2.5,1.119288 2.5,2.5 z" />
            </g>
          </g>
          <path
             id="eye-right-lid"
             class="eye right lid"
             d="M5.1 105.1C-9.9 89.4 5.1-0.2 64.9-0.2 124.8-0.2 75.9 129.4 64.9 118.8 54 108.3 35 98.5 5.1 105.1Z"
             stroke="#FFFFFF"
             stroke-width="3"
             fill="#FFFFFF" />
        </g>
        <g
           id="eye-left"
           class="eye left">
          <g
             id="eye-left-gaze"
             class="eye left gaze"
             transform="translate(52.000000, 125.000000)">
            <g
               id="eyeball-left"
               class="eyeball left">
              <circle
                 id="eye-left-iris"
                 class="eye left iris"
                 fill="#000000"
                 cx="8.5"
                 cy="8.5"
                 r="15.5"
                 d="M 24,8.5 C 24,17.060414 17.060414,24 8.5,24 -0.06041362,24 -7,17.060414 -7,8.5 -7,-0.06041362 -0.06041362,-7 8.5,-7 17.060414,-7 24,-0.06041362 24,8.5 z" />
              <circle
                 id="eye-left-pupil"
                 class="eye left pupil"
                 fill="#FFFFFF"
                 cx="15.5"
                 cy="15.5"
                 r="2.5"
                 d="M 18,15.5 C 18,16.880712 16.880712,18 15.5,18 14.119288,18 13,16.880712 13,15.5 13,14.119288 14.119288,13 15.5,13 c 1.380712,0 2.5,1.119288 2.5,2.5 z" />
            </g>
          </g>
          <path
             id="eye-left-lid"
             class="eye left lid"
             d="M29.1 118.8C40 108.3 59 98.5 88.9 105.1 103.9 89.4 88.9-0.2 29.1-0.2 -30.8-0.2 18.1 129.4 29.1 118.8Z"
             stroke="#FFFFFF"
             stroke-width="3"
             fill="#FFFFFF" />
        </g>
      </g>
      <g
         id="fg-statics"
         class="fg statics">
        <path
           id="head"
           class="head"
           d="M48.6 263.2C60.7 334.7 205.5 369.3 233.1 271.7 290.2 258.7 270.9 162.3 233.7 227.3 248.2 167.1 273.5 139.4 244.7 77.9 215.9 16.3 49.8 11.7 24.6 71.8 -0.6 131.9 41.5 197.2 46.7 233.5 8.7 140.3-10.3 271.7 48.6 263.2ZM88.7 185.7C63.3 188.1 71.3 211.6 77.7 224.3 84 237 109.7 249.2 119.5 231.5 125.4 220.8 108.6 183.8 88.7 185.7ZM195.2 185.7C220.6 188.1 212.6 211.6 206.3 224.3 199.9 237 174.2 249.2 164.5 231.5 158.5 220.8 175.4 183.8 195.2 185.7Z"
           stroke="#FFFFFF"
           stroke-width="3"
           fill="#FFFFFF" />
        <path
           id="ear-left-stroke"
           class="ear left stroke"
           d="M37.3 254.9C37.3 254.9 23.4 246 27.9 236.3 29.8 232.3 14.6 228.4 22.6 242.5"
           stroke="#FFFFFF"
           stroke-width="2" />
        <path
           id="ear-right-stroke"
           class="ear right stroke"
           d="M257.1 237.3C257.1 232.7 253.4 226 238.4 243.2"
           stroke="#FFFFFF"
           stroke-width="2" />
        <g
           id="hair"
           class="hair">
          <path
             d="M17.1 201.8C33.1 204.8 39 214.9 44.8 232.5 47 220.8 52.3 192.6 47 187 41.6 181.3 33.5 134.3 40.3 134.3 47 134.3 81.3 109.3 81.3 106 81.3 102.8 66.9 145.5 62.3 145.5 57.8 145.5 124 121.2 124 113.6 124 106 123.3 137.6 117.7 143.2 112.1 148.8 175.5 158.1 211.5 109.6 217.4 106 224.9 141.2 224.9 150.5 224.9 159.9 242 136.4 242 131.7 242 127.1 231.5 231.6 231.5 231.6 231.5 231.6 245.4 229.9 263.8 201.8 282.1 173.7 311 107.2 251.9 74.5 297.3 51.9 257.3 57.9 249.7 62 246.3 51.8 235.5 16.3 228.5 16.3 228.5 24.8 237.5 51.8 237.5 54.4 200.8-21.4 69.4-15.5 17.1 59.2 -11.4 99.9 1.1 198.7 17.1 201.8Z"
             stroke="#FFFFFF"
             stroke-width="3"
             fill="#FFFFFF"
             id="path3070" />
          <path
             id="hair-stroke-3"
             class="hair stroke 3"
             d="M98.8 101.4C70.5 81.5-62.6 181.6 60.1 35.1"
             stroke="#FFFFFF"
             stroke-width="2" />
          <path
             id="hair-stroke-2"
             class="hair stroke 2"
             d="M240.8 190.5C259.6 98.1 267.8 150.8 267.8 169.3 267.8 187.9 284.9 137.2 284.9 137.2"
             stroke="#FFFFFF"
             stroke-width="2" />
          <path
             id="hair-stroke-1"
             class="hair stroke 1"
             d="M210.4 91C208.4 91 215 90.8 215 90.8 215 90.8 202.9 82.6 202.9 82.1 202.9 81.6 223.1 89.2 225.4 89.2 227.6 89.2 209.9 69.5 205.9 68.5 202 67.4 231.9 77.6 238.7 90 245.5 102.4 236.1 44.8 198.7 28.3"
             stroke="#FFFFFF"
             stroke-width="2" />
        </g>
        <path
           id="nose"
           class="nose"
           d="M124.4 252.5C124.4 252.5 119.2 260.8 122.9 263.3 126.6 265.7 131.6 263.4 133.3 266 139.4 275.6 150.1 272 154 267.1 156.2 264.3 165.3 264.3 167.2 261.4 169.2 258.6 162.4 250.6 162.4 250.6"
           stroke="#FFFFFF"
           stroke-width="2" />
      </g>
      <g
         id="foreground"
         class="foreground"
         transform="translate(55.000000, 163.000000)">
        <g
           id="mouth"
           class="mouth"
           transform="translate(29.000000, 115.000000)"
           stroke="#000000"
           stroke-width="8">
          <path
             id="mouth-animated"
             class="mouth animated"
             d="M24.4 13.3C27.7 15.1 75.2 22.7 93 15.7" />
          <path
             id="mouth-neutral"
             class="mouth neutral"
             d="M24.4 13.3C27.7 15.1 75.2 22.7 93 15.7"
             style="display:none;" />
          <path
             id="mouth-happy"
             class="mouth happy"
             d="M-0.1-0.3C52.8 38.2 83.8 31.4 118.1-0.3"
             style="display:none;" />
          <path
             id="mouth-sad"
             class="mouth sad"
             d="M0.6 19.8C30.7 7.9 66.1-0.2 105.4 19.8"
             style="display:none;" />
          <path
             id="mouth-uncertain"
             class="mouth uncertain"
             d="M2.8 8.2C43.6-1 44.3 31.6 112.5 4"
             style="display:none;" />
          <path
             id="mouth-angry"
             class="mouth angry"
             d="M0.5 17.1C16.8 14.2 96.4 12.4 116.6 23.4"
             style="display:none;" />
        </g>
        <g
           id="eyebrows"
           class="eyebrows"
           stroke-width="7"
           stroke="#000000">
          <g
             id="eyebrow-left"
             class="eyebrow left">
            <g
               id="eyebrow-left-box"
               class="eyebrow right box">
              <path
                 id="eyebrow-left-animated"
                 class="eyebrow left animated"
                 d="M0.5 25.1C0.5 25.1 8.8 7.6 15.6 5.2 22.4 2.8 70.9 11.4 70.9 11.4" />
            </g>
            <path
               id="eyebrow-left-angular"
               class="eyebrow left angular"
               d="M0.5 25.1C0.5 25.1 8.8 7.6 15.6 5.2 22.4 2.8 70.9 11.4 70.9 11.4"
               style="display:none;" />
            <path
               id="eyebrow-left-round"
               class="eyebrow left round"
               d="M0.5 26.1C0.5 26.1 7.2 5.4 29.5 0.8 51.8-3.8 70.9 12.4 70.9 12.4"
               style="display:none;" />
          </g>
          <g
             id="eyebrow-right"
             class="eyebrow right"
             transform="translate(104.000000, 0.000000)">
            <g
               id="eyebrow-right-box"
               class="eyebrow right box">
              <path
                 id="eyebrow-right-animated"
                 class="eyebrow right animated"
                 d="M-0.3 11.6C-0.3 11.6 45.4 1.7 54.2 5.2 63 8.8 64.8 21.5 64.8 21.5" />
            </g>
            <path
               id="eyebrow-right-angular"
               class="eyebrow right angular"
               d="M-0.3 11.6C-0.3 11.6 45.4 1.7 54.2 5.2 63 8.8 64.8 21.5 64.8 21.5"
               style="display:none;" />
            <path
               id="eyebrow-right-round"
               class="eyebrow right round"
               d="M-0.3 12.6C-0.3 12.6 17.7-4 40.2 1.4 62.8 6.8 64.8 22.5 64.8 22.5"
               style="display:none;" />
          </g>
        </g>
      </g>
    </g>
  </g>
  <path
     sodipodi:type="arc"
     style="fill:#ff0000;fill-opacity:1;stroke:#000000;stroke-width:2;stroke-linejoin:round;stroke-miterlimit:5;stroke-opacity:0.07407406;stroke-dasharray:none;stroke-dashoffset:0"
     id="path3217"
     sodipodi:cx="156"
     sodipodi:cy="240.64865"
     sodipodi:rx="21.729731"
     sodipodi:ry="20.756756"
     d="m 177.72973,240.64865 a 21.729731,20.756756 0 1 1 -43.45946,0 21.729731,20.756756 0 1 1 43.45946,0 z"
     transform="translate(-11.027027,5.8378378)" />
    
</svg>
